<svg width="37" height="22" viewBox="0 0 37 22" fill="none" xmlns="http://www.w3.org/2000/svg">
<path d="M34.4429 16.3516C33.6842 15.4608 32.8229 14.6571 31.989 13.8868C31.6951 13.6122 31.3943 13.3376 31.1004 13.0563C30.7108 12.6812 30.5194 12.4133 30.4989 12.219C30.4784 12.0248 30.6151 11.7368 30.9227 11.3148C31.3875 10.6785 31.8796 10.0422 32.3581 9.42599C32.7819 8.87676 33.2194 8.31413 33.6432 7.74481L33.7389 7.61755C34.5591 6.50569 35.4067 5.35365 35.8579 3.95378C35.9878 3.55191 36.1245 2.95579 35.7964 2.43336C35.4683 1.91092 34.8667 1.75687 34.4429 1.68319C34.2379 1.6497 34.0396 1.643 33.8551 1.643L28.5371 1.6363C27.6143 1.62291 26.9786 2.05157 26.63 2.90891C26.3497 3.5921 26.0216 4.38915 25.6457 5.13932C24.9143 6.59277 23.9915 8.26725 22.6517 9.66042L22.5902 9.7207C22.5013 9.81447 22.3509 9.97522 22.2758 10.0087C22.1322 9.92163 21.9613 9.40589 21.9682 9.13798C21.9682 9.13128 21.9682 9.12458 21.9682 9.11788L21.9613 3.09645C21.9613 3.06296 21.9613 3.03617 21.9545 3.00268C21.8383 2.14535 21.6059 1.28131 20.2183 1.0134C20.1704 1.0067 20.1294 1 20.0816 1H14.5516C13.5127 1 12.959 1.46885 12.5215 1.9712C12.3916 2.11855 12.0567 2.51373 12.2276 2.98928C12.4053 3.47153 12.9248 3.572 13.0957 3.60549C13.6972 3.71936 14.0116 4.05425 14.1073 4.69056C14.2987 5.92967 14.3192 7.25586 14.1825 8.86336C14.1415 9.29203 14.0732 9.62023 13.9501 9.89484C13.9159 9.96852 13.8886 10.0154 13.8681 10.0422C13.8339 10.0288 13.7861 10.0087 13.7177 9.96182C13.2939 9.68051 12.9726 9.23845 12.665 8.80978C11.4347 7.10181 10.3957 5.21969 9.49338 3.04957C9.12426 2.15874 8.42704 1.6631 7.53159 1.6497C5.82955 1.62291 4.25055 1.62291 2.71257 1.6497C1.988 1.6631 1.48218 1.88413 1.20192 2.31279C0.921666 2.74146 0.935337 3.29069 1.22926 3.94039C3.36194 8.58875 5.29638 11.9645 7.50425 14.8982C9.06274 16.9612 10.6281 18.3945 12.4326 19.4126C14.3329 20.4776 16.4724 21 18.9537 21C19.234 21 19.5211 20.9933 19.815 20.9799C21.3461 20.9129 21.9682 20.3168 22.0365 18.85C22.0775 18.0797 22.1596 17.4501 22.4672 16.9076C22.5492 16.7535 22.6517 16.653 22.7269 16.633C22.8089 16.6129 22.9525 16.6597 23.1097 16.7602C23.3968 16.9478 23.6497 17.1956 23.8548 17.4166C24.0598 17.6376 24.2717 17.8721 24.4768 18.0931C24.9074 18.5687 25.3586 19.0576 25.8302 19.5265C26.8897 20.5847 28.1201 21.0737 29.4735 20.9732H34.3404C34.3541 20.9732 34.3746 20.9732 34.3883 20.9732C34.9488 20.9397 35.4341 20.6316 35.7212 20.136C36.063 19.5399 36.0561 18.783 35.7075 18.1199C35.3452 17.4434 34.8667 16.8473 34.4429 16.3516ZM34.5113 19.4863C34.4429 19.6001 34.3609 19.6269 34.3199 19.6269H29.453C29.4325 19.6269 29.412 19.6269 29.3983 19.6269C28.4414 19.7073 27.628 19.3724 26.835 18.5887C26.3907 18.14 25.9533 17.6644 25.5295 17.2023C25.3244 16.9745 25.1125 16.7401 24.8938 16.5124C24.6272 16.2311 24.2991 15.9029 23.8753 15.635C23.2464 15.2331 22.7201 15.2465 22.392 15.3269C22.0707 15.4072 21.6059 15.635 21.2504 16.2646C20.7925 17.0817 20.6899 17.9658 20.6489 18.8031C20.6284 19.3121 20.5395 19.4461 20.4985 19.4796C20.4507 19.5265 20.2866 19.6001 19.7535 19.6269C17.1696 19.7475 15.0028 19.292 13.1299 18.2405C11.4962 17.3228 10.0676 16.01 8.63211 14.1011C6.48576 11.2545 4.59916 7.95245 2.5075 3.39786C2.43231 3.23041 2.40497 3.12994 2.40497 3.07636C2.45965 3.05626 2.56219 3.03617 2.74674 3.03617C4.26422 3.00938 5.82955 3.00938 7.51792 3.03617C7.75033 3.04287 8.01008 3.10985 8.20831 3.5854C9.1516 5.856 10.2384 7.82519 11.5304 9.62023C11.8721 10.0958 12.3028 10.6852 12.9316 11.1072C13.5058 11.4956 13.9775 11.4756 14.2646 11.3952C14.5585 11.3148 14.9618 11.0804 15.2352 10.4508C15.4129 10.0422 15.5155 9.58674 15.5701 9.00402C15.7205 7.28265 15.6932 5.856 15.4881 4.50971C15.3446 3.54521 14.8319 2.84863 14.0321 2.49364C14.1757 2.41996 14.3329 2.39317 14.5585 2.39317H20.02C20.3276 2.46015 20.3892 2.54052 20.4097 2.56731C20.4985 2.68118 20.5464 2.95579 20.5806 3.17013L20.5874 9.13798C20.5737 9.7073 20.8608 10.9799 21.8246 11.3282C21.8314 11.3282 21.8383 11.3349 21.852 11.3349C22.7337 11.6162 23.3148 11.0067 23.6223 10.6785L23.677 10.6182C25.1467 9.09109 26.1378 7.30275 26.9102 5.76222C27.3135 4.96517 27.6553 4.14133 27.9424 3.43135C28.0859 3.07636 28.2158 3.01608 28.5302 3.02277C28.5371 3.02277 28.5371 3.02277 28.5439 3.02277L33.8688 3.02947C33.9918 3.02947 34.1217 3.02947 34.2242 3.04957C34.4771 3.08975 34.5797 3.14334 34.6138 3.16343C34.6207 3.20362 34.6138 3.31748 34.5386 3.55191C34.149 4.74414 33.4039 5.75553 32.6179 6.82719L32.5222 6.95445C32.112 7.51038 31.6746 8.07301 31.2576 8.61554C30.7723 9.23845 30.2733 9.88814 29.8016 10.5378C28.79 11.9243 28.8788 12.8419 30.1434 14.0476C30.4442 14.3356 30.7449 14.6169 31.0457 14.8915C31.8865 15.6685 32.6794 16.4052 33.3834 17.2358C33.7526 17.6711 34.1764 18.2003 34.4771 18.7763C34.6343 19.071 34.5933 19.3456 34.5113 19.4863Z" fill="#F50049" stroke="#F50049" stroke-miterlimit="10"/>
</svg>
